<?xml version="1.0" encoding="utf-8"?>

<!DOCTYPE svg PUBLIC "-//W3C//DTD SVG 1.1//EN" "http://www.w3.org/Graphics/SVG/1.1/DTD/svg11.dtd">
<svg version="1.1" id="Layer_1" xmlns="http://www.w3.org/2000/svg" xmlns:xlink="http://www.w3.org/1999/xlink" x="0px" y="0px"
	 viewBox="0 0 2586.106 1619.809" enable-background="new 0 0 2586.106 1619.809" xml:space="preserve">
<g>
	<path fill="#ECF3F3" d="M2289.922,1302.329c41.955,78.209,114.59,181.12,192.612,245.838c34.174,23.424,7.212,11.597,90.519,59.207
		c-27.856,6.033-50.973,6.41-87.877-4.275c-102.055-44.897-168.54-125.353-292.301-114.838c-36.083,2.78-9.167-0.483-67.675,9.402
		c-37.068,10.489-86.762,19.677-123.305,32.013c-24.209,6.385-84.48,19.441-116.626,24.551
		c-122.88,24.038-168.448,54.345-239.077,31.392l-6.838-4.508l-3.341-4.118l-0.854-5.127l1.786-5.05
		c18.693-26.807,46.724-35.773,66.665-67.676l1.71-7.381l-0.778-6.838c-3.148-7.155-1.624-4.62-6.682-11.112
		c-17.342-11.633-20.736-10.938-37.372-14.295c-159.604-27.94-281.442,160.874-435.888,150.267
		c-16.6-2.956-10.628-1.255-26.182-7.457c-26.534-13.27-23.614-11.333-47.319-31.392c-57.043-48.089-74.095-69.086-119.967-79.173
		c-44.634-11.675-72.742,3.68-124.939,7.381c-63.89,0-23.482,2.013-184.298-14.219c-27.686-1.604-33.92-1.422-60.683,1.631
		c-24.889,2.943-18.437,2.402-54.157,14.452c-64.796,23.695-47.721,21.368-109.088,47.163
		c-33.898,12.16-66.953,34.732-130.065,34.732c-23.244,1.951-25.022,0-73.504,0l-9.245-0.856L13.053,8.19
		c63.838,27.713,62.745,49.733,163.089,39.703c23.793-1.802,16.209,0.51,39.78-1.632c24.318,2.451,18.071-1.188,39.627,4.119
		c16.406,5.931,34.974,7.71,95.492,37.14c29.576,12.773,92.845,48.931,146.926,66.819c53.439,24.054,122.574,26.167,180.882,20.28
		c128.942-6.546,176.046-29.457,289.737-54.157c39.917-7.587,14.913-1.945,53.223-6.525c12.043,0,13.397,0.588,26.185,4.118
		c45.27,25.284,26.914,17.361,49.026,30.458c23.056,14.574,29.906,13.229,43.046,16.859h6.836c13.779,3.99,8.881,0.468,59.129,8.391
		c59.508,18.254,20.707,5.637,50.736,17.715c30.611,11.89,32.999,14.627,52.291,17.018c8.399,2.004,5.297,1.632,13.599,1.632
		c132.465,0,161.482-92.324,391.986-10.18c22.789,9.01,25.378,13.397,37.996,20.202c6.202,6.392,3.685,4.248,11.033,9.402
		c12.064,14.529,6.613,5.509,17.636,27.038c8.444,19.859,4.608,6.016,19.503,71.017c7.249,25.147,9.015,33.296,27.038,57.342
		c15.417,23.602,34.455,40.841,49.804,54.076c23.016,15.5,25.282,19.705,59.13,32.867c6.3,2.292,3.8,1.689,10.955,2.641
		c17.921,4.826,31.186,4.197,38.149,4.197c23.564,0,25.813,0.511,39.627-2.565c-5.151,50.86-2.439,31.951-11.889,82.905
		c-46.092,258.076-47.599,240.952-37.139,276.138c11.617,33.245,10.792,31.967,27.04,56.643c14.31,15.622,5.456,7.961,42.345,30.303
		c157.843,91.365,186.475,238.841,239.001,366.657l5.05,14.453V1302.329z"/>
	<path fill="#C4CBCB" d="M732.99,1484.89c2.11-53.852-3.752-40.077,5.747-71.792c5.649-18.658,6.293-10.859,19.425-37.14
		c1.272-7.531,1.01-3.29,1.01-19.424c-11.659-39.662-9.402-18.531-9.402-104.893c-11.124-59.971-13.167-37.533-48.172-102.095
		c-5.501-19.575-6.373-22.485-2.485-47.397c6.268-27.436,5.974-15.246,10.099-45.685c0-48.031-25.426-127.71-34.574-199.218
		l2.485-5.051c36.179,54.43,54.457,95.104,66.743,157.106c4.199,20.704,3.419,13.226,3.419,32.789
		c1.883,39.391-1.524,53.662,7.536,97.276c17.176,53.861,8.155,21.076,23.7,63.403c20.183,37.9,26.013,55.837,46.541,73.425
		c12.043,14.723,0.878-1.18,21.909,22.766c7.59,7.822,2.951,1.971,16.862,24.629c2.003,9.257,1.206,6.014,3.495,14.22
		c0,66.932,20.813,89.71,43.899,161.379c-85.155,0-102.101-8.377-167.361-12.665L732.99,1484.89z"/>
	<path fill="#C4CBCB" d="M147.37,52.175c1.101,15.247,0.853,4.706,0.853,49.029c2.991,37.406,0.769,36.296,28.748,78.475
		c17.518,26.681,4.599,7.133,21.912,29.526c76.007,86.843,37.556,120.29,73.502,185.155l6.76,5.05l6.838-1.866
		c12.136-19.974,10.134-19.655,19.346-32.788l5.129,1.555l5.904,10.334c31.063,79.692,31.445,82.592,44.91,125.638
		c28.664,89.073,25.787,79.726,37.062,128.512c23.782,101.005,31.753,135.882,44.831,265.262l4.119,16.084l7.535-7.538
		c15.947-44.904,18.15-55.987,38.074-161.457c8.054-72.6,10.781-93.256-3.341-144.518c-18.048-66.391-35.146-88.115-54.933-151.124
		c-19.914-71.888-4.583-72.229-14.298-144.441l-5.048-16.005c-22.216-31.764-37.375-39.658-52.369-93.005
		c-20.052-73.044-4.884-38.608-29.526-114.837c-14.598-7.443-9.173-5.121-23.776-10.18c-14.502-6.201-9.116-4.288-23.619-8.391
		c-41.181-11.616-78.308-17.376-127.426-9.245l-11.187,1.553V52.175z"/>
	<path fill="#C4CBCB" d="M288.501,1579.58c17.326,0,11.262-0.35,27.814,1.555c31.15,3.458,13.687,0.253,28.826,3.341
		c25.73,0,11.069,1.01,27.895,1.01c97.697-13.09,133.631-54.328,288.883-100.62c-3.75-149.429-6.251-160.64-16.94-199.218
		l-9.169-10.177l-12.818,6.682c-21.454,25.245-25.019,30.88-53.224,51.592c-17.366,9.351-11.021,6.852-27.816,10.955
		c-26.257,0-31.914-2.93-47.319-10.955c-43.016-22.076-57.695-38.155-121.597-17.018c-22.074,5.607-64.366,25.983-91.373,47.397
		c-21.125,15.269-5.165,5.143-26.107,20.278c2.579,12.306,33.628,194.176,33.799,195.178H288.501z"/>
	<path fill="#C4CBCB" d="M468.404,143.531c106.154,221.276,83.438,192.538,156.328,301.394l4.273,1.631l5.828-3.187
		c14.386-18.266-3.109,4.056,22.92-33.798l4.118-2.564l3.42,2.564c19.133,55.361,19.49,58.081,27.038,155.242
		c12.31,87.741,16.496,94.732,50.736,146.305c63.059,75.777,84.237,99.138,119.966,191.758
		c66.777,185.885,76.03,184.456,105.593,219.653c34.258,37.4,17.085,21.611,34.652,36.985
		c19.299,28.843,21.552,24.454,32.167,53.456c5.154,13.36,3.63,8.203,6.682,22.611c0,29.198,0.797,18.743-3.495,45.842
		c-13.619,41.129-12.841,38.815-37.917,89.509c-15.578,38.358-19.425,42.72-19.425,123.229c38.322-3.955,46.981-3.341,60.837-3.341
		c4.582-37.914,2.738-18.569,5.051-57.498c5.191-39.269,7.639-39.833,15.23-52.367l5.05-3.187l5.826-1.089
		c34.078,4.302,17.691,4.276,33.799,4.276l5.128-2.566l2.488-5.051l2.563-15.149l-1.631-15.152
		c-11.916-53.599-7.192-20.913-17.715-61.614c-6.298-18.703-4.757-11.739-6.761-30.536c2.005-21.853,0.464-13.58,6.761-36.286
		c18.388-60.979,19.346-56.728,19.346-91.373c-7.437-20.062-7.092-23.532-33.72-48.094c-5.963-4.997-13.417-13.12-49.961-31.079
		c-46.963-28.993-61.948-29.719-94.481-67.675c-70.85-112.063-72.6-306.037-136.126-442.724l-5.129-4.197
		c-9.3,4.209-5.354,2.165-17.561,9.247c-17.752,17.898-2.455,2.763-28.748,23.698l-5.982,2.409l-2.487-4.897
		c-2.1-30.149-2.667-19.146,2.487-48.25c17.792-72.564,51.798-114.51,22.766-194.246c-19.648-59.679-34.377-68.725-64.178-142.808
		l-15.152,2.642c-48.487,2.107-31.668,2.409-62.546,2.409c-90.073-4.601-102.876-14.85-145.298-29.448l-11.808-6.684H468.404z"/>
	<path fill="#C4CBCB" d="M962.682,201.658l-2.566-4.117c-9.972,19.652-18.973,81.414-14.374,105.515
		c7.368,18.245,20.174,39.568,27.117,50.657c8.378,31.153,6.196,50.01,13.598,84.537c6.602,20.972,8.331,21.616,21.056,38.849
		c6.203,8.397,3.704,5.491,10.955,12.743c22.511,30.012,73.704,60.447,111.497,128.358
		c22.761,33.784,92.601,160.925,128.436,197.586c27.304,22.045,9.127,6.718,30.379,27.97l5.205,7.538
		c4.014,11.644,2.676,4.143,5.75,34.809c6.101,91.464-26.802,133.879,27.195,217.864c20.702,31.351,28.403,33.903,59.051,70.163
		c34.397,34.151,43.497,50.059,57.496,70.86c42.282,96.826,34.65,120.621,59.052,247.468c50.99-25.495,49.319-25.699,93.082-37.917
		c51.895-6.725,67.119,0.016,105.436,19.271c-72.389-101.491-93.701-119.007-140.169-200.15
		c-104.265-204.502-38.267-122.35-152.131-302.48c-30.089-64.027-27.816-92.844-27.816-134.108
		c-9.673-44.768-18.443-70.128-81.196-133.562c-109.485-105.527-61.79-72.884-140.09-176.531
		c-69.669-89.708-94.314-101.214-152.132-206.988c-13.656-35.245-6.223-1.565-42.346-109.088L962.682,201.658z"/>
	<path fill="#C4CBCB" d="M1098.793,325.945c22.342,53.26,13.495,53.956,36.284,102.097c9.257,19.753,5.217,12.612,17.715,31.311
		c4.009,6.297,2.449,4.189,6.838,9.248c32.816,21.376,39.433,21.067,59.128,33.798c14.491,10.186,9.777,4.508,22.689,22.92
		c20.65,28.348,28.686,47.709,51.592,87.721c-5.698-50.129,1.052-48.175-8.392-91.216c-5.25-17.652-2.716-11.538-11.111-26.806
		c-5.155-8.59-2.833-5.647-10.179-12.899c-5.427-6.444-6.207-8.475-24.319-20.203c-25.923-16.195-17.912-11.424-27.973-17.015
		c-23.153-12.758-10.681-7.382-33.798-21.834c-11.871-14.022-7.395-5.824-21.21-21.987c-4.963-7.253-2.872-4.754-9.169-10.955
		c-11.037-15.257-4.163-4.257-17.794-23.698c-13.668-15.984-16.776-24.39-26.106-35.586L1098.793,325.945z"/>
	<path fill="#C4CBCB" d="M1118.901,158.56c21.037,2.874,6.278,3.081,38.925,6.838c10.625,2.973,24.282,3.807,64.18,9.245
		c36.057,171.629,11.627,190.029,208.774,306.677c82.976,48.946,107.943,78.407,125.87,99.764
		c12.527,15.078,7.94,8.178,26.963,43.978c16.369,34.896,8.023,12.65,20.278,49.647c11.364,33.875,6.138,15.899,15.23,51.438
		c10.305,51.231,7.752,29.015,9.323,49.182c-5.252,32.527-14.193,36.529-16.937,64.178c2.003,12.596,0.85,8.414,5.051,18.336
		c11.494,32.346,32.868,88.25,63.4,103.34c8.396,0.955,5.314,0.956,13.52,0l7.536-3.341c7.442-7.442,5.102-4.535,10.257-12.742
		c2.004-9.351,1.437-5.893,2.485-15.152c-4.135-20.678-4.603-21.528-27.892-68.451c-11.781-30.756-25.919-43.64-5.906-105.592
		l4.118-6.839l3.574-2.485l4.04,2.485c11.256,19.439,15.125,22.003,26.341,75.214c11.362,89.506,23.198,95.956,43.898,128.279
		c14.095,17.848,33.991,41.674,41.415,98.133c11.922,59.273,1.628,18.287,29.447,98.055
		c90.685,208.828,95.504,217.988,76.145,267.671c-20.744,48.115-18.776,30.079-44.756,85.312
		c9.925-52.627,26.245-69.183,30.304-111.343l-4.041-12.043l-11.111-5.75l-14.296-1.631l-11.033,6.76
		c-10.401,16.413-6.965,9.311-15.073,31.157c-14.638,48.536-7.963,38.446-23.7,77.698c-12.138,7.911-66.675,55.642-68.529,57.496
		c40.798-106.07,98.622-187.148,86.09-317.629c-7.552-38.691-5.667-32.226-26.107-73.58l-8.391-9.247l-7.614-2.485l-6.76,5.826
		c-14.605,29.97-10.526,18.203-17.872,51.592c-1.907,35.21-1.907,21.557,0,59.905c7.958,91.518,6.993,81.528,2.642,119.267
		c-13.454,56.284-33.235,55.036-45.609,113.052c-7.402-52.776,6.34-44.879,14.298-130.921c-4.913-23.652-8.535-45.76-67.521-111.421
		c-40.424-49.411-31.775-61.46-57.34-126.725c-22.295-73.631-19.321-44.318-55.867-172.49
		c-10.714-43.072-11.109-42.025-11.109-77.544c3.22-69.777,8.987-76.265-4.118-130.065c-6.202-11.355-4.093-7.137-9.248-18.493
		c-33.523-57.788-78.517-72.213-114.138-148.171c-17.63-44.282-29.512-79.09-67.675-107.845
		c-78.329-47.366-83.596-35.062-135.194-73.658C1158.441,341.045,1155.004,270.744,1118.901,158.56z"/>
	<path fill="#C4CBCB" d="M1316.634,210.149c98.051,0,150.341-51.241,248.401-45.531c15.487,26.297,14.272,27.763,30.536,54.001
		c14.953,28.119,13.698,20.725,24.318,44.831c15.411,30.424,6.577,7.888,23.776,45.455c26.667,62.771,16.093,65.832,10.023,131.775
		c0,21.416-1.507,23.933,10.179,54.312c4.293,3.911,2.556,2.599,7.614,5.75c23.708,0,37.202-13.255,63.478-21.213
		c5.155,0,3.258-0.213,8.316,0.932l2.485,2.566c7.652,34.435,2.083,53.642-2.485,99.686c-1.433,16.774-1.247,15.319,5.126,43.821
		c24.834,49.983,18.117,18.018,79.408,112.353c11.358,22.901,6.927,14.43,19.425,37.139c10.399,24.995,6.163,15.922,18.571,39.781
		c4.834,11.535,34.362,78.472,34.808,79.486c81.515,182.061,153.328,177.716,184.066,393.542
		c3.873,129.729,3.283,137.112-60.837,234.88l-2.563,1.71c-7.676,0-2.038-0.328-13.442,1.631
		c-11.697,4.679-17.353,2.664-27.894,6.838c-6.612,1.003-17.216,2.788-25.329,5.051c24.272-104.424,32.706-72.42,49.882-177.308
		c2.015-37.399,4.354-40.665-15.308-71.87c-25.984-38.001-21.02-23.456-37.14-52.37c-11.35-24.001-10.269-22.588-21.21-86.089
		c-10.133-110.485-14.388-109.242-54.079-174.975c-60.749-89.2-108.002-141.953-138.535-195.102
		c-31.596-58.097-17.152-40.644-42.268-99.764c-31.812-55.884-73.161-36.792-96.269-116.78
		c-10.258-42.937-19.357-54.965-26.96-66.511c-7.348-3.91-4.441-2.741-12.743-5.126c-25.079,0-25.936,6.735-44.677,1.942
		c-92.387-53.658-111.488-143.746-197.741-284.843H1316.634z"/>
	<path fill="#C4CBCB" d="M1805.892,351.28c31.481,162.788,46.767,303.951,91.217,422.368
		c35.898,84.363,83.535,132.127,173.189,255.86c46.644,74.894,27.482,33.873,126.727,181.581
		c56.624,107.562,44.768,110.247,162.154,244.206c26.581,28.204-0.903-0.896,48.097,48.095
		c-136.074-183.382-102.384-178.959-362.385-532.155c-170.481-252.367-128.602-278.821-158.815-522.832
		c-12.989-9.652-0.459-1.05-32.867-29.601c-11.029-14.933-8.249-9.879-21.056-25.329c-11.305-17.77-10.889-13.114-22.92-34.733
		L1805.892,351.28z"/>
	<path fill="#ED2224" d="M2008.56,578.464l16.938-102.25c-24.793,5.045-68.224,4.084-92.929-5.982
		c-26.115-9.919-10.047-3.967-32.01-15.152c-10.4-6.105-6.911-3.608-15.306-10.954c-40.077-26.989-55.873-55.484-62.549-64.181
		c-12.293-20.617-14.868-21.625-26.182-71.016c-10.156-42.868-6.864-36.027-23.465-68.451c-18.101-20.53-6.995-6.632-20.435-20.28
		c-18.123-9.772-1.302-2.976-31.314-17.637c-130.626-50.104-204.286-43.458-283.054-15.152
		c-29.762,7.536-104.558,35.055-148.637,15.93c-17.86-4.518-8.597-4.351-26.26-10.179c-51.062-22.46-44.054-17.924-75.135-22.766
		c-16.321-2.122-2.094,0.949-23.465-2.563c-16.51,0-8.245-1.313-24.708-3.187c-32.306-5.098-40.256-14.204-73.347-36.44
		c-25.179-12.302-23.322-15.468-59.205-13.52c-75.019,9.154-114.941,28.003-193.471,42.19c0.28,1.002,26.53,98.403,31.158,119.888
		c26.548-1.719,24.528-2.599,81.971-15.149c84.907-17.211,97.07-19.156,137.681-6.682c60.121,23.441,12.361,5.094,87.956,40.48
		c34.435,10.059,30.96,9.037,45.609,10.177c28.579,0,17.223-2.081,39.781,0c66.901,6.744,36.79,11.074,126.648,18.571
		c93.849-7.766,16.207,2.465,164.799-26.263c134.387-24.879,222.812-0.804,282.976,113.363
		c18.811,91.852,14.354,76.823,23.776,94.635c19.517,27.64,68.766,49.542,76.764,54.079c12.14,6.777,9.329,5.674,19.424,9.091
		c6.3,3.339,3.8,2.363,10.957,4.273c23.611,7.516,44.552,7.944,65.966,5.127H2008.56z"/>
	<path fill="#ED2224" d="M1978.212,756.773l12.664-82.126c-10.761,2.346-7.339,0-19.503,0
		c-11.027-3.128-44.597-12.856-56.485-20.124c-15.151-4.326-24.655-9.762-37.218-15.384c-2.959-3.914-1.825-2.391-4.972-6.682
		c-32.454-56.043-27.154-38.619-34.811-85.236c-2.746-45.086-9.828-55.74-37.994-81.039c-12.404-8.395-7.992-5.063-19.346-14.606
		c-46.043-27.69-21.604-14.028-62.549-32.789c-17.84-8.925-12.297-6.079-31.233-11.81c-18.356-6.119-19.233-6.13-31.235-7.614
		c-22.789-5.352-29.257-4.197-59.983-4.197c-83.755,0-117.491,38.074-218.799,38.074c-38.479-5.263-37.462-6.021-44.832-8.627
		c-10.398-1.907-6.746-0.968-16.005-4.116c-4.769-1.06-20.601-4.871-31.311-8.548c-15.337-5.466-11.592-3.052-25.253-7.536
		c-7.538-0.954-4.827-0.369-11.889-2.565c-7.345-0.953-4.813-0.386-11.109-2.485h-5.906l-5.826-1.788
		c-14.534,0-4.805-0.266-52.448-8.313c-8.286-3.238-5.448-2.27-12.508-4.273c-8.399-4.104-5.084-2.792-14.53-5.75
		c-15.077-8.144-9.083-3.065-27.895-12.899c-22.096-9.696-10.801-3.533-28.591-10.023c-32.671-8.264-9.041,3.574-112.431-5.051
		c-49.552,0-55.149,1.95-103.105,9.248c6.656,22.271,25.111,90.471,28.672,109.709c30.144-4.459,4.402,1.834,42.266-4.973
		c41.482-2.942,73.751-12.634,147.083-5.904c57.582,9.298,83.025,22.417,114.916,30.458c22.674,8.843,13.75,3.622,39.548,12.507
		c3.118,0.593,12.124,1.863,36.519,9.402c163.661,50.048,238.888-37.603,382.662-9.402c33.332,10.145,57.678,16.1,91.219,36.365
		c37.927,20.151,57.911,36.795,82.903,65.109c12.31,17.748,8.094,11.21,18.492,28.672c22.771,82.959,15.457,55.175,21.991,83.681
		l2.563,4.351c3.855,3.675,2.52,2.972,12.586,8.235c26.261,11.22,27.801,16.491,51.516,20.281c19.607,4.656,7.869-0.07,23.697,5.204
		L1978.212,756.773z"/>
	<path fill="#ED2224" d="M2008.56,896.085c-12.653-16.028-15.9-22.631-21.912-37.215c-11.453-27.572-6.512-13.228-13.442-43.046
		l-9.401,0.932c-16.475-2.636-8.695-0.2-21.91-5.205c-4.199-3.148-2.675-2.208-6.682-4.119
		c-11.951-11.585-43.823-14.968-57.576-109.865c-3.064-9.592-4.665-14.751-17.637-27.892c-8.302-7.253-4.811-4.754-15.306-10.957
		c-9.351-6.295-5.895-4.187-15.152-9.245c-21.806-9.634-14.073-8.102-35.586-14.22c-9.255-3.434-5.8-1.999-15.149-6.293
		c-15.953-3.481-62.603-20.891-75.213-23.309c-28.238-6.92-43.691-10.935-109.788-1.866c-100.869,8.582-50.764,7.616-161.379,7.616
		c-22.93,2.632-62.763,2.375-86.167-3.341c-14.746-4.914-9.855-2.154-25.407-5.906c-17.995-2.225-11.575-2.774-31.236-5.205
		c-10.209-2.003-6.539-1.631-16.083-1.631c-4.213-0.859-14.411-3.341-30.458-3.341c-18.066-2.445-15.318,1.648-37.917-3.341
		c-5.153-3.152-3.238-1.804-8.392-5.907c-5.631-14.092-7.983-16.807-11.033-22.765c-5.342-3.147-3.412-1.96-8.467-5.205
		c-29.313-3.516-27.615,2.298-95.413,7.614c-28.39,4.48-54.191,4.734-139.469,12.586c16.287,47.331,11.463,25.67,20.278,52.526
		c6.469,15.401,6.466,16.099,11.035,34.574c62.108,8.994,138.833-12.989,201.859-27.892c29.61-4.26,42.375-7.711,61.769,6.836
		c7.751,10.413,4.224,4.998,8.316,11.811c4.299,4.11,2.582,2.375,7.535,7.614c5.344,4.104,3.36,2.385,8.702,7.538
		c165.882,24.323,104.573,36.716,330.14,26.26c115.111,0,42.798-0.142,103.261,2.487c69.636,10.638,121.006,3.126,173.965,46.385
		c20.208,22.228,5.596,2.989,76.067,117.482c7.349,14.358,13.649,18.195,17.715,27.892c16.903,10.951,29.834,12.214,46.465,7.613
		H2008.56z"/>
	<path fill="#ED2224" d="M2185.2,1055.724c-5.389-7.839-5.485-8.153-15.23-18.647c-11.954-20.104-37.562-46.81-54.079-63.324
		l-9.323,1.709c-22.903,0-9.809,1.788-39.625,1.788c-8.343-2.908-14.374-5.523-19.503-7.692
		c-27.148-10.73-27.427-8.193-43.899-24.475c-9.985-20.437-20.308-31.504-32.168-47.319c-34.28-48.233-90.505-85.345-109.787-91.994
		c-19.124-8.417-91.06-23.398-131.62-19.581c-14.406,0-58.986,6.188-88.888,8.548c-26.972,3.962-12.199-0.949-43.976,4.195
		c-28.911,0-0.679,0.778-45.455,0.778c-13.119,0-34.216-0.755-51.592,4.272c-27.758,0-25.948-0.424-33.02-2.563
		c-13.521,0-2.663-0.278-19.425-2.487c-16.776-4.432-9.588-0.095-27.038-6.836l-6.76-0.7
		c-62.332-18.034-53.512-14.237-78.555-34.654c-4.098-6.289-2.36-4.182-7.613-9.245c-3.705-6.689-9.012-12.409-12.587-16.24
		l-4.275-2.564c-34.438-9.059-63.096,9.644-294.863,34.031c18.472,55.433,19.054,31.659,37.139,86.946
		c38.614,2.792,54.948-0.462,76.921-3.498c50.163-7.034,64.37-10.879,75.213-13.363c124.661-27.422,131.567-38.205,156.172-21.289
		c13.198,16.495,12.459,36.95,25.485,56.643c83.636,14.895,59.906,17.869,120.744,17.869c23.735-1.976,13.859-3.495,35.43-3.495
		c48.001-8.342,181.292-9.329,224.86-4.975c92,8.61,117.437,16.998,185.854,45.687c43.566,21.66,59.049,34.011,66.741,39.627
		c60.013,78.602,37.484,50.94,55.788,66.741c7.251,5.251,4.556,3.549,11.811,7.46c5.152,5.343,3.043,3.589,9.245,7.692l1.71,2.487
		c21.046,7.013,16.79,6.492,62.468,11.811c7.111,0,6.018,0.494,21.291-2.565l3.262-0.778H2185.2z"/>
	<path fill="#D61F27" d="M1357.231,773.617c-7.928-5.735-14.389-10.398-21.134-18.646c-12.991-12.991-12.37-14.925-17.793-21.834
		c-5.154-3.052-3.258-1.865-8.314-5.205c-14.916-1.915-9.239-3.121-38.849,0c-11.45,2.289-7.357,1.669-17.949,2.72
		c-30.573,5.175-3.446,3.022-41.335,5.75l-10.878,1.553c8.381,16.986,4.484,10.042,25.328,43.978
		c19.421,23.335,11.872,18.142,35.508,38.15c12.173-3.576,50.116-12.974,72.648-16.084l14.376,1.785l10.099,5.751l6.606,7.77
		c16.11,37.111,4.925,16.581,15.384,39.627C1383.443,825.94,1374.676,811.434,1357.231,773.617z"/>
	<path fill="#252B6A" d="M815.708,156.888c84.894,265.794,155.544,480.59,257.567,694.468
		c-129.979,20.131-157.108,12.586-209.473,12.586c-169.846-10.456-436.649-64.945-704.491-14.296L13.084,8.176
		c66.668,28.942,60.679,49.003,163.167,39.781c23.987,0,0.513-0.778,39.626-0.778c23.525,1.979,18.692-1.2,39.703,5.75
		c95.676,24.277,191.328,90.744,261.764,108.078c72.827,28.511,212.415,11.156,286.631-2.485L815.708,156.888z"/>
	<path fill="#ED2224" d="M178.629,969.534c32.274-13.053,62.117-21.983,103.027-24.318c28.685-5.474,15.509-0.235,39.859-4.505
		c17.069,0,81.841-10.68,128.28-7.46c90.059,0,254.894,27.97,327.886,27.97c9.488,0.712,203.352,10.425,276.295,3.187
		c219.855-14.769,227.494-43.619,270.312-51.513c12.94-4.186,4.198-1.139,23.698-4.041c11.491,1.791,7.884,1.475,13.442,1.475
		c16.011,5.915,11.486,2.466,26.26,13.674c11.688,17.526,10.859,26.944,20.203,47.165l5.828,6.137
		c13.725,6.488,3.133,2.581,36.44,9.247c24.251,1.863,14.479,3.341,39.781,3.341c74.913,6.92,96.874-1.709,236.436-1.709
		c64.596,5.369,174.022,2.928,258.658,18.568c51.425,9.103,60.698-1.837,124.161,79.33l0.621,3.343
		c15.946,23.104,32.928,37.311,59.205,46.617c10.688,4.199,6.612,3.029,17.872,5.129c10.305,2.958,6.264,2.019,17.715,4.119
		c24.898,4.391,8.543,3.427,28.748,4.972c10.217,31.396,18.959,48.954,19.425,49.96c7.263,27.709,5.164,10.955,17.714,50.658
		l-9.245,1.709c-16.184-1.779-17.652-3.276-27.038-7.613c-25.033-17.614-31.998-25.971-53.223-59.206
		c-53.729-84.11-57.601-87.386-162.157-96.345c-61.311-4.651-192.653,21.022-255.239,16.238c-3.16,0-104.029-2.595-122.529-4.273
		c-15.603,0-112.027-4.631-165.576-22.765c-23.367-27.067-9.12-21.322-32.089-47.319c-20.358-8.486-19.955-7.663-27.894-8.392
		c-19.915-4.677-36.332-4.163-56.564-1.788c-11.133,1.448-11.978,1.932-25.407,7.616c-19.326,8.392-6.066,6.599-45.61,21.056
		c-38.397,14.785-78.027,18.985-113.128,22.766c-99.599,6.423-93.106,11.444-219.031,0c-12.614-2.054-129.548-17.561-156.096-17.561
		c-35.132-3.542-189.974-5.982-190.983-5.982c-239.613,0-218.253,15.782-392.064,39.626l-13.442,0.778
		C190.685,1038.308,183.627,997.871,178.629,969.534z"/>
	<path fill="#D61F27" d="M1300.629,919.752c39.159-12.653,28.421-7.912,45.607-10.177c12.454,0,26.781-1.192,40.559,12.586
		c8.74,18.471,25.656,60.297,57.574,107.456c-35.233-10.247-16.465-6.553-42.266-9.245c-14.777-1.626-28.687-1.558-47.397,2.409
		c-9.254,0.955-5.976,0.193-14.374,3.341c-13.242,5.903-12.489,4.111-29.526,14.452c-4.759,1.163-1.771,0.091-10.177,4.195
		c-3.973-24.566-9.645-38.393,0-124.083V919.752z"/>
	<path fill="#ED2224" d="M219.147,1207.786c89.846-19.372,48.752-9.8,179.948-21.987c228.845-28.777,499.814-62.143,730.908-21.756
		c16.532,2.542,35.207,8.439,57.417,12.51c10.307,4.292,6.267,3.158,17.715,4.973c122.532,41.868,171.774-30.659,221.286-47.163
		c20.387-6.359,23.132-5.207,44.832-5.207c12.519,4.554-1.037-0.976,20.278,5.907l7.692,6.136
		c14.766,29.805,3.082,6.881,17.639,47.163l5.983,6.684c15.447,7.165,0.65,0.401,26.184,7.846
		c12.403,0.764,7.778,0.232,20.278,2.331c16.958,2.717,5.148,1.106,41.337,4.197c22.581,3.5-3.36-0.144,43.044,3.495
		c71.716,0,117.233,1.852,208.776-22.765c111.291-37.4,247.943,14.173,308.383,25.252l8.392,2.564
		c42.275,26.547,53.328,69.892,81.971,106.524c11.141,8.161,8.087,8.029,37.296,14.995c10.307,2.292,6.282,1.689,17.637,2.642
		c15.3,40.645,48.537,78.464,76.92,111.497l-8.546,1.787c-42.979-4.816-84.916-71.924-108.933-106.678
		c-17.721-17.317-12.874-15.665-26.96-26.031c-20.057-15.598-31.368-12.058-76.999-27.038
		c-24.072-5.256-110.24-30.379-152.055-30.379c-12.404-2.196-7.794-1.788-20.203-1.788c-27.609-1.961-16.492,0-43.122,0
		c-23.069,4.052-36.973,1.569-80.263,18.647c-50.375,15.938-41.325,11.97-91.295,21.134c-31.891,2.703-29.442,6.06-100.62,6.06
		c-40.324,0-57.537-4.272-76.688-6.06c-20.93-3.839-19.963-3.219-33.874-9.324l-5.985-5.75
		c-17.778-37.24-11.069-28.47-21.988-40.791c-14.531-7.268-17.543-6.682-33.72-6.682c-15.172,0-23.432,2.76-26.107,3.498
		c-66.756,15.922-72.367,48.62-188.574,75.211c-25.258,4.673-8.536,1.583-53.223,7.459c-74.492,6.32-128.26-55.513-259.201-77.698
		c-102.148-11.932-131.193,5.897-189.351,10.177c-75.524,11.433-238.024,7.073-346.379,49.028
		c-17.932,6.427-9.023,2.953-41.334,11.034c-47.178,6.163-17.108,3.042-50.893,7.459c-18.883,1.105-35.331,3.311-53.922,6.836
		c-26.493,3.049-27.085,3.085-52.37,8.392c-28.788-121.669-23.836-98.94-27.038-119.81l-4.273-13.753V1207.786z"/>
	<path fill="#ED2224" d="M266.497,1451.961c66.443-6.582,98.589,6.884,201.938-30.533c40.419-12.083,141.282-53.791,228.119-58.973
		c88.179-4.504,120.105,8.396,225.559,0.853c37.54-6.109,4.279-1.879,40.559-4.194c6.561-1.203,12.49-3.376,38.927-0.932
		c143.095,12.174,135.022,138.867,306.596,86.943c25.847-10.195,15.914-3.92,31.546-12.742
		c64.786-27.969,70.162-46.629,166.197-75.911c25.347-6.707,1.695,1.042,27.816-9.401c8.3-4.103,5.021-2.792,14.374-5.75
		c8.303-4.296,5.007-2.914,14.453-6.061c16.542-3.616,25.677-8.179,41.334,1.788c22.609,32.65,19.152,72.524,79.329,98.832
		c42.44,12.317,53.742,8.67,94.792,0.932c42.952-14.235,207.404-44.276,259.279-60.14c47.471-10.169,68.411-9.428,92.929-6.682
		c77.015,8.4,213.713,78.684,228.12,86.946c6.206,4.105,3.89,2.163,10.179,8.546c6.3,5.248,3.979,2.964,10.179,10.023
		c11.847,14.213,8.12,7.799,20.2,22.144c10.81,10.322,15.002,11.96,22.766,14.374c5.685,1.497,6.123,2.414,20.358,0.778
		c15.601,13.691,54.068,54.177,130.998,94.557c-25.841,5.599-41.683,4.591-50.736,3.343c-23.008-3.179-15.382-1.542-24.632-4.119
		c-51.021-13.808-97.398-54.629-146.77-79.486c-148.71-95.224-279.296,3.88-465.646,26.263
		c-117.972,27.863-189.547,54.498-245.916,26.96l-3.34-4.194v-5.207l1.709-4.973c34.987-40.273,46.961-35.252,65.888-68.296
		l1.709-7.77c-0.952-8.205-0.367-5.335-2.563-12.587c-9.612-9.766-11.464-11.034-24.475-15.151
		c-28.516-8.792-54.244-5.205-75.135-5.205c-24.597,4.917-7.947-0.531-34.652,7.614c-29.064,9.207-33.292,9.593-65.112,27.195
		c-24.026,11.825-90.042,53.933-102.174,59.905c-20.679,12.09-25.606,18.508-83.68,42.19c-33.299,10.623-44.13,15.151-92.926,15.151
		c-28.608-6.909-21.975-5.514-50.582-21.058c-24.35-17.14-10.229-8.361-46.541-37.215c-81.066-79.374-132.595-65.697-199.452-54.001
		c-26.952,0,1.73,0.932-47.395,0.932c-77.154,0-163.344-28.551-244.827-5.904c-144.671,49.772-73.697,37.839-213.903,82.824
		c-25.048,4.645-3.806,3.21-34.576,5.75c-26.482,2.228-2.085-1.142-37.139,2.72c-35.223,0-1.063,0-36.364,0
		c-11.856-1.295-5.801-1.01-26.107-1.01L266.497,1451.961z"/>
	<path fill="#33479D" d="M468.404,143.531c102.193,213.019,85.114,197.012,154.54,301.394l4.273,1.631l5.982-3.187
		c8.695-9.893,2.384-1.557,24.554-33.798l4.118-2.564l3.42,2.564c13.873,40.14,14.146,35.019,27.038,155.242
		c4.198,39.497,1.869,25.162,10.177,62.7c9.974,35.091,7.055,26.669,13.52,40.481c21.28,40.04,34.732,53.998,59.905,84.537
		c64.039,76.961,50.209,73.601,60.84,87.877l0.853,3.341c4.461,7.521,4.087,6.997,5.983,10.877c-5.4,0-20.92,0-26.339,0
		c-5.286-0.916-1.538-0.7-17.561-0.7c-19.175,0,0.019-0.932-26.339-0.932c-13.581-18.058,3.453,3.444-58.274-68.296
		c-38.28-42.151-32.666-38.668-50.659-61.615c-22.777-35.223-29.764-42.709-37.993-87.877c-11.785-65.963-7.147-53.201-22.844-96.5
		c-21.542-29.62-32.96-33.042-47.241-48.096c-32.936-24.329-37.671-33.842-45.609-48.094
		c-52.237-104.458-71.09-186.136-125.871-341.329c21.368,10.351,5.2,4.229,26.028,13.52c13.079,8.52,9.166,3.738,21.135,11.655
		c10.733,3.84,34.23,15.57,37.296,17.169H468.404z"/>
	<path fill="#33479D" d="M147.37,50.356c1.108,15.54,0.853,4.959,0.853,49.185c3.152,42.56,1.124,28.492,16.862,65.11
		c15.377,18.976,10.998,18.756,38.849,51.438c12.184,17.992,11.384,12.092,21.21,29.601c43.589,64.717,13.314,83.648,47.241,148.715
		l6.76,4.972l6.838-2.563c12.553-21.05,10.604-20.318,19.346-32.945l5.129,0.934c7.437,11.645,3.887,3.887,16.084,36.284
		c60.972,167.461,86.389,276.822,108.077,425.787c-34.284,0-28.154,0.355-38.849-1.788c-4.993-14.134-65.234-192.404-69.228-206.832
		c-15.335-43.876-13.379-37.446-16.94-58.274c-5.816-36.77-5.11-34.583-14.452-59.205c-9.066-14.507-5.044-9.492-17.637-21.99
		l-5.904-1.71l-5.985,5.051c-16.037,25.536-9.151,17.483-22.765,39.548l-5.904,3.652l-4.973-2.563
		c-12.872-18.463-12.549-18.761-19.502-32.945c-11.514-27.276-23.843-65.722-30.458-101.474
		c-11.914-44.405-7.153-33.699-32.089-88.653c-5.248-9.351-3.123-5.897-9.323-15.152c-5.154-10.494-2.85-6.613-10.101-17.015
		c-22.438-39.882-21.745-30.207-36.365-64.956c-23.493-58.244-4.367-93.873-18.49-160.525c7.059,0.86,4.366,0.274,11.808,2.566
		c6.203,0.952,4.076,0.58,9.326,1.631c14.809,3.352,6.254,0.381,16.781,2.563c5.58,0.998,2.078,0.778,16.084,0.778
		c6.555,0.991,3.424,0.775,13.442,0.775H147.37z"/>
	<polygon fill="#C4CBCB" points="371.383,365.531 347.605,359.627 371.383,381.615 371.383,407.799 386.454,393.425 411.863,412.85 
		395.78,383.324 410.232,370.738 386.454,367.319 369.595,336.861 	"/>
	<polygon fill="#ECF3F3" points="524.176,386.649 502.186,383.308 524.176,403.666 525.961,429.695 541.113,414.621 
		563.025,435.677 547.873,407.783 560.459,393.409 536.916,389.214 521.688,363.03 	"/>
	<polygon fill="#C4CBCB" points="663.612,407.769 643.331,406.061 665.319,424.009 666.953,448.406 677.986,435.663 
		699.895,454.156 687.231,428.049 698.186,412.897 677.986,411.188 661.902,385.003 	"/>
	<polygon fill="#ECF3F3" points="793.68,428.118 775.962,425.476 795.387,444.901 797.096,468.601 808.907,454.148 829.963,472.874 
		814.036,446.611 826.622,434.179 807.198,429.752 792.124,406.052 	"/>
	<polygon fill="#ECF3F3" points="206.421,339.448 181.247,335.175 204.866,357.241 206.421,384.982 223.437,370.684 
		250.475,390.808 231.904,361.282 250.475,346.133 223.437,341.857 206.421,312.178 	"/>
	<polygon fill="#C4CBCB" points="263.064,260.849 239.364,257.354 263.064,276.779 263.064,305.605 263.064,304.673 
		279.145,291.231 303.62,312.287 289.324,280.973 303.62,268.387 279.145,262.559 263.064,234.667 	"/>
	<polygon fill="#ECF3F3" points="427.046,296.371 402.571,292.876 427.046,312.223 428.831,339.417 428.831,338.564 441.42,325.975 
		467.68,344.312 450.822,316.73 463.408,301.346 441.42,297.927 427.046,271.82 	"/>
	<polygon fill="#C4CBCB" points="571.516,320.778 549.448,316.661 571.516,336.861 575.789,362.97 586.744,347.819 608.731,368.874 
		593.582,340.202 606.09,325.907 585.112,324.121 571.516,296.381 	"/>
	<polygon fill="#ECF3F3" points="826.615,361.265 808.898,357.227 829.178,376.652 829.956,398.483 841.921,384.965 
		861.267,403.612 846.971,379.993 856.216,367.404 837.648,362.975 825.059,339.434 	"/>
	<polygon fill="#C4CBCB" points="705.849,344.274 687.2,340.157 709.266,359.582 710.898,383.279 722.63,370.693 743.842,389.262 
		727.915,362.923 738.714,349.402 718.59,346.061 705.849,322.442 	"/>
	<path fill="#ECF3F3" d="M110.221,297.851h0.856l0.076-0.778L110.221,297.851z M112.786,252.318l-26.962-4.273l26.962,22.066
		l-1.634,26.962l17.561-13.52l27.894,22.066l-16.783-32.011l19.503-14.452l-30.614-3.495l-14.22-30.303L112.786,252.318z"/>
	<polygon fill="#C4CBCB" points="411.799,513.359 388.1,509.164 411.799,532.707 411.799,559.902 426.949,542.963 454.065,563.319 
		435.497,534.493 450.803,519.265 426.949,515.147 411.799,485.621 	"/>
	<polygon fill="#ECF3F3" points="563.964,532.8 542.751,528.684 565.671,548.883 568.158,576.778 580.745,559.919 604.444,581.051 
		590.07,550.671 603.588,536.143 579.035,534.509 563.964,504.052 	"/>
	<polygon fill="#C4CBCB" points="707.597,547.205 685.529,545.497 707.597,564.766 710.86,591.183 722.668,576.654 743.802,595.301 
		729.428,567.329 740.539,550.702 721.193,548.914 705.887,522.732 	"/>
	<path fill="#ECF3F3" d="M841.01,604.703h1.01l-0.076-1.167L841.01,604.703z M837.593,563.288l-18.493-3.341l20.978,21.134
		l1.866,22.455l10.876-14.063l22.066,18.571l-16.937-25.331l10.798-15.228l-19.425-4.197l-13.44-23.697L837.593,563.288z"/>
	<polygon fill="#ECF3F3" points="244.462,493.009 219.131,491.535 244.462,513.368 244.462,542.97 261.553,525.954 289.369,547.167 
		272.354,516.709 289.369,500.78 261.553,497.285 244.462,465.272 	"/>
	<polygon fill="#ECF3F3" points="307.188,416.997 281.703,412.959 307.188,435.646 307.188,463.541 324.047,448.467 
		350.232,468.513 333.371,438.987 347.669,423.058 322.26,418.785 308.82,389.259 	"/>
	<path fill="#ECF3F3" d="M468.378,483.935h1.01l-0.078-0.932L468.378,483.935z M467.602,439.025l-24.475-3.341l24.475,20.202
		l1.707,27.117l14.298-14.374l23.619,21.134l-16.005-30.379l12.743-16.861l-24.553-1.864l-14.296-27.816L467.602,439.025z"/>
	<polygon fill="#ECF3F3" points="613.825,457.696 592.69,455.832 613.825,474.557 615.456,502.295 629.052,487.3 652.674,507.424 
		635.812,478.754 648.398,463.602 627.188,461.893 612.037,434.155 	"/>
	<polygon fill="#ECF3F3" points="874.866,495.667 856.216,493.026 876.573,511.751 879.914,536.072 889.24,522.708 909.44,539.567 
		894.987,513.385 906.177,499.011 885.742,497.301 871.446,470.185 	"/>
	<polygon fill="#C4CBCB" points="749.763,476.158 729.483,474.526 751.549,493.019 754.036,519.282 754.036,518.504 
		764.991,506.693 787.057,524.254 772.529,497.292 782.706,481.365 760.718,479.501 748.054,452.695 	"/>
	<polygon fill="#ECF3F3" points="142.296,401.824 114.479,398.483 142.296,420.473 142.296,450.853 142.296,450.075 
		159.311,434.148 186.271,455.825 169.412,423.968 187.981,407.731 159.311,403.612 144.003,372.377 	"/>
	<polygon fill="#C4CBCB" points="452.429,669.649 428.808,667.942 452.429,688.298 454.061,717.9 469.288,700.884 494.619,719.534 
		477.68,690.008 492.91,671.359 469.288,671.359 452.429,640.202 	"/>
	<polygon fill="#ECF3F3" points="608.719,680.628 585.176,678.996 608.719,699.198 610.427,728.646 623.015,712.795 
		646.791,730.588 632.182,700.986 644.925,683.115 621.384,683.115 606.154,652.814 	"/>
	<polygon fill="#C4CBCB" points="751.513,691.677 729.445,689.97 751.513,711.102 755.708,736.433 766.741,721.281 790.362,740.706 
		772.645,712.735 784.456,694.243 762.39,694.243 749.725,663.707 	"/>
	<polygon fill="#ECF3F3" points="882.489,700.908 863.762,700.908 884.196,719.401 887.461,746.674 887.461,745.664 
		896.785,730.669 920.56,748.227 903.545,719.401 914.578,704.251 895.075,702.618 879.845,677.289 	"/>
	<polygon fill="#ECF3F3" points="283.413,657.063 258.082,655.356 283.413,677.265 283.413,706.869 301.981,690.008 329.02,711.142 
		311.305,679.131 327.31,660.328 300.272,658.773 285.198,627.461 	"/>
	<polygon fill="#ECF3F3" points="347.607,571.749 322.276,569.031 347.607,591.173 347.607,621.555 362.913,604.693 390.729,625.05 
		371.383,592.729 388.088,576.799 362.913,574.935 347.607,542.925 	"/>
	<polygon fill="#ECF3F3" points="507.393,589.371 483.693,586.03 509.024,606.232 509.024,635.99 509.024,635.215 524.173,618.975 
		547.949,640.109 530.934,610.662 546.164,592.714 521.688,589.371 507.393,559.924 	"/>
	<polygon fill="#ECF3F3" points="656.06,603.079 633.991,600.437 657.691,619.008 659.322,646.902 671.131,632.372 694.131,651.175 
		677.969,623.203 691.49,606.266 669.578,604.712 654.426,576.818 	"/>
	<polygon fill="#ECF3F3" points="918.782,629.022 900.133,627.625 920.489,645.418 923.83,671.29 934.01,657.072 955.765,672.921 
		939.06,646.971 947.53,632.519 929.58,629.022 914.585,604.781 	"/>
	<polygon fill="#C4CBCB" points="792.141,617.272 772.638,616.419 793.694,634.134 797.113,660.397 808.921,645.402 829.98,663.816 
		814.05,636.076 825.005,619.06 805.426,617.272 792.141,589.38 	"/>
	<path fill="#ECF3F3" d="M180.391,623.179h0.856v-0.854L180.391,623.179z M181.247,571.82l-30.46-4.505l30.46,23.854v31.157
		l16.081-17.561l26.884,20.281l-16.005-32.402L226,574.928l-27.117-1.631l-15.929-32.011L181.247,571.82z"/>
	<polygon fill="#C4CBCB" points="316.488,204.975 292.788,200.003 318.12,221.993 318.12,248.099 333.347,234.579 356.812,255.635 
		340.961,225.334 355.259,212.745 330.784,209.25 316.488,178.869 	"/>
	<polygon fill="#ECF3F3" points="483.686,249.868 461.696,246.527 483.686,264.166 485.471,291.205 485.471,290.273 
		497.903,276.752 521.679,296.333 505.752,270.071 519.891,255.697 496.272,252.356 483.686,223.529 	"/>
	<polygon fill="#C4CBCB" points="622.984,273.644 601.073,270.149 622.984,291.205 624.692,314.902 624.692,314.127 638.29,301.306 
		659.268,320.809 644.972,294.546 656.005,280.949 634.017,276.752 621.351,252.277 	"/>
	<polygon fill="#ECF3F3" points="755.639,292.876 734.505,288.604 757.424,307.253 759.134,331.65 768.379,318.207 790.369,335.145 
		775.917,310.67 786.95,297.851 766.748,294.51 754.005,268.479 	"/>
	<polygon fill="#ECF3F3" points="169.358,190.639 143.948,184.735 167.648,206.879 167.648,234.539 183.732,219.622 
		209.992,240.523 195.54,212.707 211.548,197.477 183.732,194.136 169.358,164.611 	"/>
	<polygon fill="#ECF3F3" points="388.095,732.305 361.211,732.305 388.095,753.517 388.095,785.452 388.095,784.674 
		404.333,764.318 430.361,787.161 413.502,754.994 428.808,736.423 402.545,734.714 386.461,702.547 	"/>
	<path fill="#ECF3F3" d="M554.678,799.733h0.854l-0.076-1.088L554.678,799.733z M553.825,749.927h-24.553l24.553,19.425
		l1.631,29.293l12.743-17.404l25.25,20.046l-16.005-31.935l12.586-15.927l-24.319-1.788l-13.753-30.379L553.825,749.927z"/>
	<polygon fill="#ECF3F3" points="701.584,758.458 680.449,757.527 701.584,776.951 705.856,806.555 718.599,788.762 
		740.433,806.555 726.291,776.951 738.799,760.092 715.102,758.458 699.874,730.645 	"/>
	<polygon fill="#ECF3F3" points="960.948,776.989 942.456,776.989 962.656,796.338 966.852,821.745 975.244,804.883 
		997.388,823.376 982.936,796.338 990.472,781.264 972.835,779.476 957.529,753.448 	"/>
	<polygon fill="#C4CBCB" points="840.183,779.507 819.124,776.944 840.183,798.078 845.231,825.973 854.557,808.957 
		876.544,825.973 861.315,798.078 873.125,781.217 852.923,779.507 837.617,751.615 	"/>
	<polygon fill="#ECF3F3" points="200.617,751.466 173.654,749.913 200.617,770.891 200.617,804.924 219.107,785.421 
		247.158,806.477 228.43,773.61 247.158,753.41 219.107,753.41 203.18,719.455 	"/>
	<polygon fill="#C4CBCB" points="231.944,112.111 206.459,108.77 231.944,130.604 231.944,155.157 247.016,141.715 272.425,162.771 
		255.564,134.179 272.425,122.212 247.016,116.23 231.944,88.492 	"/>
	<polygon fill="#ECF3F3" points="386.487,160.99 363.798,156.874 388.119,177.23 388.119,199.996 400.861,189.041 426.968,209.241 
		411.816,180.571 425.336,167.828 400.861,164.644 386.487,135.818 	"/>
	<path fill="#C4CBCB" d="M541.952,246.421h0.854v-0.778L541.952,246.421z M541.099,206.794l-22.068-5.126l23.776,20.356v23.619
		l12.667-12.74l21.988,19.425l-14.452-26.962l12.743-11.111l-21.912-5.051l-15.228-24.397L541.099,206.794z"/>
	<polygon fill="#ECF3F3" points="777.665,219.52 759.172,217.734 777.665,234.593 781.082,257.361 781.082,256.583 792.115,246.404 
		810.607,262.488 795.38,238.091 807.188,226.825 788.619,223.484 775.955,199.941 	"/>
	<path fill="#C4CBCB" d="M668.632,260.816h0.932l-0.078-0.854L668.632,260.816z M665.291,221.967l-20.359-2.407l22.066,18.49
		l2.487,21.912l10.955-11.811l21.134,18.571l-16.005-24.553l12.664-12.586l-20.278-4.273l-14.298-23.7L665.291,221.967z"/>
	<polygon fill="#ECF3F3" points="81.39,91.901 52.796,86.775 79.756,108.841 79.756,134.17 96.774,122.361 122.025,144.271 
		107.651,113.97 123.734,101.227 97.628,95.245 83.175,65.719 	"/>
	<path fill="#D61F27" d="M960.038,195.116c-9.807,17.043-14.298,43.735-14.298,64.023l35.586-10.101
		c-18.871-41.568-12.6-35.778-18.647-54.93L960.038,195.116z"/>
	<path fill="#D61F27" d="M288.501,1579.58c18.536,0,10.404-0.311,28.67,1.555c29.764,3.718,13.907-0.068,28.748,3.341
		c26.555,0,10.144,1.01,27.973,1.01c91.617-12.281,140.217-56.547,288.027-100.62c0-75.457-2.992-102.695-4.197-118.179
		l-7.614,0.778c-170.711,33.182-162.248,60.671-288.184,79.486c-14.41,0.952-8.844,0.775-24.397,0.775
		c-16.607,2.196-10.227,1.788-27.97,1.788c-17.653,0.955-10.723,0.778-30.381,0.778h-16.084
		c30.065,140.057,15.571,74.831,26.263,129.288H288.501z"/>
	<path fill="#D61F27" d="M706.67,1054.064c13.863,0,27.493,0,41.414,0c0-40.7-0.639-46.841-10.954-87.1l-2.644-4.119l-1.475-4.972
		L693.23,953.6C700.73,1000.966,711.551,1028.478,706.67,1054.064z"/>
	<path fill="#D61F27" d="M749.756,1261.811c0-19.135,0.542-20.72-4.197-32.789c-5.147-21.383-3.055-12.907-43.978-76.142
		l55.867-4.119c7.269,29.076,5.43,17.653,43.897,98.6l2.566,2.641c4.635,9.975,1.807,5.385,5.051,10.178L749.756,1261.811z"/>
	<path fill="#D61F27" d="M732.99,1484.89c2.426-61.923-6.519-37.713,15.071-97.123c5.164-7.392,3.663-4.139,9.326-23.697
		l109.941,2.641c6.8,50.002,28.432,75.85,43.899,132.477c-89.015,0-93.324-7.801-167.361-12.665L732.99,1484.89z"/>
	<path fill="#D61F27" d="M993.106,1150.267c12.498,11.356,8.44,6.678,17.791,20.513c9.258,11.356,5.784,6.767,15.23,20.124
		c15.368,31.462,16.005,37.087,16.005,67.597l54.933,21.99c-14.894-54.65,4.335-60.07,17.637-122.454
		C985.895,1149.748,994.376,1150.267,993.106,1150.267z"/>
	<path fill="#D61F27" d="M885.806,964.375c17.152,50.387,39.949,101.325,42.19,106.524c20.457,3.385,49.247,6.839,70.938,6.839
		c9.419,0.863,87.808,2.409,88.81,2.409c-11.451-9.256-7.198-5.836-18.649-14.996c-21-14.215-17.252-11.366-42.966-25.331
		c-26.127-16.327-18.223-8.249-43.978-25.485c-29.222-19.183-12.84-7.457-38.071-30.379c-8.304-11.549-5.432-7.082-12.589-19.581
		H885.806z"/>
	<path fill="#D61F27" d="M1006.681,1358.172c-21.834,48.642-25.409,47.458-25.409,135.972c40.363-4.107,46.022-3.341,60.839-3.341
		c6.73-35.494,15.509-76.818,36.283-113.049l-70.86-18.647L1006.681,1358.172z"/>
	<path fill="#D61F27" d="M972.005,353.713c10.235,44.275,2.671,20.261,9.245,54.933c3.59,27.146,4.441,30.541,16.084,53.301
		c17.215-4.214,4.94-0.364,21.134-4.273c15.33,0,10.362-1.863,25.329-1.863c7.347-0.86,4.422-0.86,12.821,0
		c15.765,0,8.965,1.863,26.028,1.863c18.085,3.915,4.546,0.057,23.697,4.273c-12.433-12.719-54.254-65.432-70.938-91.994
		c-5.242-9.531-3.309-6.236-8.47-14.452C968.623,353.573,973.275,353.713,972.005,353.713z"/>
	<path fill="#D61F27" d="M1091.132,563.288c15.876,18.39,41.456,58.895,53.223,80.108c34.548-8.438,46.372-12.116,65.032-10.023
		c23.746,2.423,34.539,12.616,48.95,30.381c-28.479-31.939-74.911-104.153-76.92-108.08c-19.746-3.441-7.922-0.139-21.056-2.563
		l-5.907,0.932C1142.078,554.043,1134.637,556.42,1091.132,563.288z"/>
	<path fill="#010101" d="M1636.914,1577.763l-65.968-114.913c10.334-3.923,26.286-6.509,32.167-7.538
		c21.425-3.897,13.047-1.135,37.142-3.341c17.279,1.727,36.92-0.738,60.759,19.424c5.246,10.402,3.687,6.769,6.838,15.93
		c-3.757,37.507-38.422,42.426-69.307,79.484l-1.631,5.982V1577.763z"/>
	<path fill="#D61F27" d="M1480.609,1366.673c14.245,84.184,6.783,48.76,21.91,125.795c51.5-25.744,47.488-25.124,93.004-37.917
		c49.894-6.736,66.335-0.427,105.514,19.27c-16.088-19.978-5.65-9.207-19.346-24.321c-7.157-10.591-4.48-6.886-11.732-16.238
		c-19.624-24.096-7.541-10.51-22.844-30.303c-7.397-9.292-12.932-14.901-32.167-48.251c-7.276-11.099-5.415-7.691-8.546-15.227
		l-3.263-4.197c-7.441-1.907-4.73-1.145-11.889-3.341C1550.224,1336.089,1512.57,1359.811,1480.609,1366.673z"/>
	<path fill="#D61F27" d="M1374.225,1162.108c11.519,13.903,60.736,57.946,75.133,96.348l5.906-3.341
		c16.367-5.573,11.859-5.379,28.67-9.248c21.935-4.699,13.073-4.273,43.978-4.273c6.906,2.027,6.732,1.933,16.083,5.051
		c4.195,4.102,2.672,2.756,6.682,5.904c-34.6-65.978-40.748-97.566-60.061-117.479c-31.21-11.971-30.109-5.96-64.178,0
		c-21.651,10.09-8.367,2.502-26.962,11.889C1377.912,1160.131,1390.155,1151.272,1374.225,1162.108z"/>
	<path fill="#D61F27" d="M1113.136,367.373c12.466,35.762,5.672,22.808,15.928,47.165c18.338,39.175,10.878,28.112,28.748,51.592
		c25.684,19.566,5.015,10.468,124.317,45.531l-0.856-4.972c-24.262-39.56-39.302-42.73-84.534-70.085
		c-11.902-9.063-11.416-8.557-19.503-13.52c-6.201-7.442-3.914-5.121-10.023-10.177c-4.678-4.753-4.396-3.88-31.311-36.286
		L1113.136,367.373z"/>
	<path fill="#D61F27" d="M1118.901,158.56c21.037,2.874,6.278,3.081,38.925,6.838c10.625,2.973,24.282,3.807,64.18,9.245
		c18.697,89.146,14.189,83.088,27.117,132.631l-5.983-1.631c-23.619,0-3.766-0.932-28.75-0.932c-4.62,0-18.203,0-22.766,0
		c-13.363,0-9.647-1.71-21.909-1.71c-6.109-2.003-3.805-1.242-10.101-3.341C1142.536,249.096,1154.658,277.265,1118.901,158.56z"/>
	<path fill="#D61F27" d="M1348.809,429.74c21.312,12.636,13.203,11.612,32.088,21.058c18.369,13.094,11.094,5.754,34.574,22.066
		c10.404,5.153,6.538,2.831,16.94,10.177c10.404,6.107,6.541,3.591,16.937,11.033c21.292,12.937,16.647,9.327,32.945,21.134
		c-10.536,3.708-44.533,9.889-45.609,10.101c-13.898,1.685-4.449-0.917-21.213,2.642c-11.687,0-3.534,0.699-15.073,0.699
		c-10.971-21.704-10.576-21.866-21.132-34.576c-38.364-46.001-107.669-61.023-155.474-93.782
		C1276.954,409.692,1249.47,403.369,1348.809,429.74z"/>
	<path fill="#D61F27" d="M1574.391,606.232c14.632,29.502,28.159,57.935,36.284,89.666l-95.413,3.341
		c-12.018-16.615-49.955-52.811-63.324-69.153c-10.634-12.339-2.099-3.69-13.675-17.015
		C1503.372,613.071,1502.376,614.257,1574.391,606.232z"/>
	<path fill="#D61F27" d="M1621.663,798.045c-5.949,20.552-10.18,24.863-10.18,45.688c3.039,10.492,3.721,11.01,7.692,17.715
		l1.554,7.613l3.497,6.839c-12.253,1.885-9.356-0.379-21.056,1.631c-12.351,1.873-8.16-0.323-20.356,1.556
		c-6.201,0-4.069-0.214-9.326,0.931c-11.294,0-4.293,0.854-14.374,0.854l-5.051,1.71c-5.151,0-3.043-0.212-9.245,0.931
		c0-58.512,1.486-28.807,3.341-80.339L1621.663,798.045z"/>
	<path fill="#D61F27" d="M1681.715,791.294c-7.15,0-4.816-0.196-10.256,0.856c-4.37,42.381,7.963,51.932,20.2,81.971
		c5.155,1.049,3.169,0.854,8.703,0.854l3.186,0.932c7.616,0,13.863,0,22.844,0c-5.923-35.525-4.743-30.186-16.783-88.108
		C1688.201,792.849,1694.315,788.961,1681.715,791.294z"/>
	<path fill="#D61F27" d="M1787.3,990.775c1.08,4.03,2.833,8.449,5.904,12.589c19.819,94.201,13.923,77.678,21.988,102.327
		c-53.265,0-147.386,1.076-209.473-7.613c-7.953-20.063-21.474-60.784-28.904-80.262c-4.103-16.792-2.384-10.625-7.538-27.041
		C1639.068,990.775,1718.846,986.061,1787.3,990.775z"/>
	<path fill="#D61F27" d="M1643.667,1212.038c9.81,1.216,3.259,0.934,30.38,0.934c19.19,0,10.337,1.764,29.525,0
		c27.039,0,20.442,0.282,30.458-0.934c22.045-2.448,13.157,0.919,31.233-2.563c0,69.321,1.334,32.372,3.419,95.413l-6.76,0.778
		c-13.432,4.182-9.571,1.468-25.407,3.651c-15.09,0-11.101,0.213-19.503-0.932c-18.034-21.981-10.665-15.076-27.814-35.664
		c-16.676-23.283-8.191-8.686-18.493-23.465c-5.154-7.349-3.044-4.459-9.247-12.665c-6.053-10.736-0.965-2.075-12.743-18.647
		L1643.667,1212.038z"/>
	<path fill="#D61F27" d="M1843.117,1195.03c-18.267,4.974-7.069,0.846-17.018,3.497c11.018,41.908,11.257,52.072,6.685,94.714
		c7.817-1.054,9.834-1.142,20.51-4.43c6.476-1.416,21.295-3.943,34.577-11.811c-35.589-89.935-11.897-28.072-34.577-83.445
		C1844.417,1195.366,1847.856,1195.03,1843.117,1195.03z"/>
	<path fill="#D61F27" d="M1316.634,208.48c5.07,0,31.763,1.12,60.915-5.127c82.916-18.803,46.8-18.019,121.674-34.654
		c29.508-5.738,6.356-1.883,32.945-4.041c12.61-1.4,20.36-1.389,32.867,0c8.473,12.019,15.888,27.161,21.909,39.549
		c10.943,19.496,5.201,6.912,17.872,30.381c20.208,33.885,16.539,35.572,30.379,55.709c-88.439,0-54.394,1.907-84.534,4.118
		c-20.511,4.747-11.037-0.041-32.789,6.915c-10.775,2.135-38.45,10.129-61.771,12.742c-28.447,6.261-71.711,8.689-76.842,9.324
		c0,0-61.692-114.914-61.693-114.916H1316.634z"/>
	<path fill="#D61F27" d="M1658.85,400.302c-8.89,68.486-5.961,67.286,4.972,94.716c4.292,3.91,2.538,2.599,7.692,5.75
		c24.063,0,34.871-12.573,63.4-21.213c5.25,0,3.336-0.195,8.392,0.854l2.487,2.566c5.65,25.896,4.765,26.304,2.563,52.367
		c-11.258-6.107-6.846-3.963-19.346-9.402c-31.777-15.522-13.489-5.17-41.337-16.859c-48.874-9.971-65.576-15.107-114.913-10.879
		c-7.444-3.91-4.537-2.723-12.743-5.204c-25.913,0-31.902,8.942-49.806-0.7c-12.843-6.231-18.365-12.349-19.579-13.52
		c-19.446-13.067-34.799-32.13-48.796-49.026C1505.781,408.166,1592.875,386.146,1658.85,400.302z"/>
	<path fill="#D61F27" d="M1614.988,602.137c25.823-5.733,40.602-2.563,54.854-2.563c19.574,5.339,28.927,1.462,76.843,21.988
		c10.457,32.764,33.258,46.741,62.548,91.218c-45.214-11.3-81.089-10.635-106.448-13.52
		C1689.03,651.755,1640.959,638.716,1614.988,602.137z"/>
	<path fill="#D61F27" d="M1741.698,784.698c27.622,3.216,62.131,1.971,117.401,20.202c13.476,29.025,4.563,11.68,16.162,34.576
		c4.963,13.649,2.676,8.633,10.023,21.988c12.463,28.905,8.545,20.632,16.005,34.655c0,0-33.428-6.906-80.261-13.521
		c-7.16,0-4.466,0.212-11.811-0.932C1783.667,847.285,1769.757,830.264,1741.698,784.698z"/>
	<path fill="#D61F27" d="M1887.84,993.962c6.197,1.147,4.089,0.934,9.245,0.934l5.205,1.632c18.265,0,13.37,2.563,26.03,2.563
		l4.273,1.866c11.155,0,7.851-0.207,14.452,0.775c9.673,0,2.933,0.7,12.586,0.7c11.082,16.335,47.958,72.445,57.421,87.022h-6.761
		c-21.122,0-8.861,0.856-21.912,0.856c-23.137,0-7.997,0.931-22.765,0.931c-35.548,0-25.914,1.632-40.559,1.632
		C1913.142,1029.674,1901.396,1013.477,1887.84,993.962z"/>
	<path fill="#D61F27" d="M2000.216,1386.098c22.651-3.535,14.503-4.557,32.165-7.768c10.392-3.409,42.855-8.298,53.922-10.023
		c-1.117,28.524-0.042,38.933-27.038,97.898c-21.188,40.747-20.6,38.132-33.798,55.864c-5.153,0.956-3.045,0.583-9.245,1.634
		c-11.302,4.52-8.628,1-18.571,5.051c-5.248,1.145-3.139,0.932-9.245,0.932c-16.053,6.016-18.323,3.741-31.314,8.313l-4.273,0.932
		C1984.583,1434.424,1980.72,1468.92,2000.216,1386.098z"/>
	<path fill="#D61F27" d="M1720.58,1444.385l2.485,42.193l16.084-42.193C1734.752,1444.385,1729.971,1444.385,1720.58,1444.385z"/>
	<path fill="#D61F27" d="M1793.982,1432.38c-16.023,40.165-30.493,66.554-48.95,111.732c31.393-25.357,20.266-9.533,57.339-47.397
		c15.548-23.136,18.52-25.522,32.092-75.289c-15.419,6.398-6.103,1.524-19.271,5.982
		C1801.323,1429.393,1806.967,1430.386,1793.982,1432.38z"/>
	<path fill="#D61F27" d="M1891.242,1408.849h0.854H1891.242z M1909.735,1405.506l-2.409,1.788c-3.013,0-3.155,0-5.05,0l-2.641,1.555
		c-0.742,0-6.727,0-7.538,0c-16.337,45.147-24.744,75.553-29.526,92.848c37.939-67.043,44.394-83.534,49.807-96.192h-2.643V1405.506
		z"/>
	<path fill="#D61F27" d="M1805.892,347.792c14.736,34.274,17.693,33.792,34.574,56.643c6.388,7.469,3.031,4.043,22.066,22.843
		c19.492,16.89-0.47,1.601,23.544,19.271l11.033,105.668l-10.177-4.118c-17.747-13.118-39.338-23.267-55.711-51.436
		L1805.892,347.792z"/>
	<path fill="#D61F27" d="M1880.342,725.431c14.35,6.396,6.049,3.771,15.927,6.914c11.859,5.559,3.012-0.242,19.349,7.46l6.058,1.709
		c-8.828-37.202-2.574-11.695-9.245-44.831c-8.911-38.948-7.422-32.125-9.323-45.531c-31.96-17.438-37.485-24.399-53.302-54.155
		C1850.091,598.087,1874.171,688.944,1880.342,725.431z"/>
	<path fill="#D61F27" d="M1898.688,776.958c7.346,8.399,4.424,5.316,12.818,13.521c7.158,7.25,4.269,4.928,12.665,10.179
		c25.753,14.185,2.762,3.427,28.594,13.518c15.243,41.377,13.236,28.786,25.407,55.789c18.654,27.342,5.645,9.684,20.28,29.447
		c-13.358-0.955-8.735-0.193-20.28-3.341c-24.246-11.981-16.437-13.452-48.951-59.051c-21.963-37.577-26.777-52.63-29.525-60.062
		H1898.688z"/>
	<path fill="#D61F27" d="M2014.55,957.847l27.814,10.179l54.932,79.176C2045.336,1002.976,2064.202,1023.322,2014.55,957.847z"/>
	<path fill="#D61F27" d="M2128.674,1115.669c104.558,143.825,58.438,84.195,96.188,123.386c5.242,2.619,4.839,2.303,15.309,8.313
		c-10.141-18.207-6.464-7.486-18.571-29.447c-21.689-28.585-3.603-8.084-38.85-55.787c-5.151-9.353-3.024-6.092-9.323-14.298
		c-5.344-9.349-3.199-6.266-9.402-13.518c-6.105-3.149-3.784-2.193-10.179-4.197c-10.54-6.763,1.024,1.598-21.056-11.886
		L2128.674,1115.669z"/>
	<path fill="#D61F27" d="M2253.722,1317.505c16.045,14.319,7.037,5.995,21.831,16.24c9.792,2.574,10.579,2.878,21.99,6.682
		c1.387,2.209,49.917,84.503,70.082,111.496c-27.653-19.907-21.375-14.658-28.591-21.987
		c-16.193-13.251-14.851-12.921-19.503-20.281c-11.524-11.349-4.881-8.971-18.571-24.318c-9.804-14.166-5.492-10.072-16.159-24.554
		C2278.435,1352.904,2278.486,1353.286,2253.722,1317.505z"/>
</g>
</svg>
