<svg xmlns="http://www.w3.org/2000/svg" data-name="Layer 1" viewBox="0 0 64 64" x="0px" y="0px"><title>calendar agenda event sun day morning</title><path d="M54,9H51.46a4,4,0,1,0-6.92,0H19.4435A3.9533,3.9533,0,0,0,20,7a4,4,0,0,0-8,0,3.9533,3.9533,0,0,0,.5565,2H10a3.9989,3.9989,0,0,0-4,4V57a3.9989,3.9989,0,0,0,4,4H54a3.9989,3.9989,0,0,0,4-4V13A3.9989,3.9989,0,0,0,54,9ZM46,7a2,2,0,1,1,2,2A2.0059,2.0059,0,0,1,46,7ZM14,7a2,2,0,1,1,2,2A2.002,2.002,0,0,1,14,7ZM56,57a2.0059,2.0059,0,0,1-2,2H10a2.0059,2.0059,0,0,1-2-2V21H56Z"/><circle cx="32" cy="40" r="5"/><path d="M32,33a1,1,0,0,0,1-1V28a1,1,0,0,0-2,0v4A1,1,0,0,0,32,33Z"/><path d="M32,47a1,1,0,0,0-1,1v4a1,1,0,0,0,2,0V48A1,1,0,0,0,32,47Z"/><path d="M37.6567,35.3428a.9969.9969,0,0,0,.7071-.293l2.8286-2.8281a1,1,0,0,0-1.4141-1.4141L36.95,33.6357a1,1,0,0,0,.707,1.7071Z"/><path d="M25.6362,44.95l-2.8286,2.8281a1,1,0,1,0,1.4141,1.4141L27.05,46.3643A1,1,0,0,0,25.6362,44.95Z"/><path d="M39,40a1,1,0,0,0,1,1h4a1,1,0,0,0,0-2H40A1,1,0,0,0,39,40Z"/><path d="M20,41h4a1,1,0,0,0,0-2H20a1,1,0,0,0,0,2Z"/><path d="M38.3638,44.95A1,1,0,0,0,36.95,46.3643l2.8286,2.8281a1,1,0,0,0,1.4141-1.4141Z"/><path d="M25.6362,35.05A1,1,0,0,0,27.05,33.6357l-2.8286-2.8281a1,1,0,0,0-1.4141,1.4141Z"/></svg>